<?xml version="1.0" encoding="utf-8"?>
<!-- Generator: Adobe Illustrator 26.0.0, SVG Export Plug-In . SVG Version: 6.00 Build 0)  -->
<svg version="1.1" xmlns="http://www.w3.org/2000/svg" xmlns:xlink="http://www.w3.org/1999/xlink" x="0px" y="0px"
	 viewBox="0 0 595.28 841.89" style="enable-background:new 0 0 595.28 841.89;" xml:space="preserve">
<style type="text/css">
	.st0{stroke:#FFFFFF;stroke-width:2;stroke-miterlimit:10;}
	.st1{fill:#FFFFFF;stroke:#000000;stroke-miterlimit:10;}
	.st2{fill:#FFFFFF;stroke:#FFFFFF;stroke-width:8;stroke-miterlimit:10;}
	.st3{stroke:#000000;stroke-width:8;stroke-miterlimit:10;}
	.st4{stroke:#FFFFFF;stroke-width:12;stroke-miterlimit:10;}
	.st5{fill:none;stroke:#FFFFFF;stroke-width:13;stroke-miterlimit:10;}
	.st6{fill:#FFFFFF;stroke:#FFFFFF;stroke-miterlimit:10;}
	.st7{fill:#FFFFFF;stroke:#FFFFFF;stroke-width:0.75;stroke-miterlimit:10;}
	.st8{fill:#FFFFFF;}
</style>
<g id="Слой_1">
	<path class="st0" d="M120.92,536.21"/>
	<path class="st1" d="M22.97,676.64"/>
	<path class="st2" d="M164.06,568.19"/>
	<path class="st3" d="M116.01,319.07c-6.13,31.27-9.19,46.9-9.7,51.06c-5.3,43.39-5.81,35.65-8.17,60.13
		c-3.22,33.38-4.9,50.08-2.55,64.85c1.62,10.18,6.43,38.38,27.57,65.36c25.43,32.46,58.94,43.32,78.13,49.53
		c34.2,11.08,62.53,9.57,76.6,8.68c19.21-1.21,52.37-3.68,87.32-24.51c13.06-7.79,35.53-21.55,51.57-49.02
		c12.39-21.21,15.5-41.29,16.85-50.55c2.28-15.63,1.58-28.24,0-43.91c-1.02-10.12-2.08-17.7-3.89-28.72
		c-2.65-16.17-5.64-30.47-8.48-42.58c-1.98-13.4-4-25.2-5.83-35.11c0,0-3.16-16.58-8.02-32.99c-0.52-1.77-1.11-3.31-2.04-5.79
		c-3.07-8.13-4.23-8.9-4.77-9.19c-3.27-1.76-8.27,1.42-10.21,2.72c-11.52,7.71-63.66,51.4-63.66,51.4
		c-10.5-4.67-26.34-10.28-46.3-12.26c-4.36-0.43-21.5-1.93-43.57,2.04c-14.36,2.58-26.12,6.64-34.72,10.21
		c-8.57-6.3-15.51-11.73-20.43-15.66c-6.84-5.47-12.76-10.49-24.34-20.3c-7.2-6.11-13.17-11.21-17.36-14.81
		c-3.4-3.42-8.27-7.21-12.75-6.1C120.83,295.16,118.58,305.97,116.01,319.07z"/>
</g>
<g id="Слой_2">
	<path class="st4" d="M257.82,387.34c-5.79,0.43-22.09,2.45-34.39,15.65c-10,10.72-11.86,22.93-14.16,38.07
		c-1.95,12.83-5.29,34.71,6.07,56.32c3.05,5.81,8.74,16.29,20.74,22.95c9.79,5.43,19.03,5.67,23.77,5.74
		c4.14,0.06,18.1,0.26,29.84-7.82c18.03-12.4,20.08-36.91,21.75-56.85c0.96-11.49,2.11-27.39-5.56-44.85
		c-3.21-7.3-7.83-17.83-19.22-24.51C274.55,384.93,262.24,386.53,257.82,387.34z"/>
	<path class="st5" d="M262.69,378.63c-17.83-0.34-31.32,5.76-43.57,11.46c-13.6,6.33-22.18,12.68-37.7,24.36
		c-10.48,7.89-24.61,19.14-40.56,33.86c-2.49,1.88-7.01,5.87-7.06,11.06c-0.05,6.31,6.53,10.96,10.37,13.59
		c33.18,22.78,49.82,34.1,60.32,39.39c20.4,10.27,30.59,15.4,36.9,16.86c24.52,5.67,45.23,0.37,54.55-2.12
		c15.28-4.09,26.64-10.86,49.36-24.4c13.97-8.32,23.61-15.4,31.62-22.04c5.71-4.74,10.3-9.02,13.62-12.27
		c1.12-0.89,5.6-4.63,5.21-9.49c-0.17-2.12-0.9-3.78-3.21-6.3c-7.9-8.63-12.41-12.2-18.23-16.89c-23.5-18.93-20.88-17.7-27.91-22.68
		c-24.96-17.67-47.28-25.46-52.38-27.22C281.39,381.42,273.73,378.84,262.69,378.63z"/>
	<path class="st6" d="M261.9,556.01c-6.72,0.5-11.05,7.8-9.79,13.85c0.85,4.09,4.35,7.99,8.81,8.6c6.52,0.88,13.43-5.49,12.73-12.42
		C273.09,560.51,267.78,555.57,261.9,556.01z"/>
	<path class="st7" d="M143.7,500.01c-6.72,0.5-11.05,7.8-9.79,13.85c0.85,4.09,4.35,7.99,8.81,8.6c6.52,0.88,13.43-5.49,12.73-12.42
		C154.89,504.51,149.58,499.57,143.7,500.01z"/>
	<path class="st6" d="M383.98,500.55c-6.72,0.5-11.05,7.8-9.79,13.85c0.85,4.09,4.35,7.99,8.81,8.6
		c6.52,0.88,13.43-5.49,12.73-12.42C395.17,505.05,389.86,500.11,383.98,500.55z"/>
	<path class="st6" d="M333.47,540.53c-0.65,0.05-3.1,0.24-4.57,2.07c-0.61,0.75-1.4,2.22-0.82,5.73c0.66,3.98,2.22,5.43,5.06,10.59
		c3.79,6.89,3.79,9.38,7.02,11.22c0.83,0.48,3.23,1.84,5.72,1.07c0.97-0.3,1.61-0.82,1.98-1.14c2.3-1.93,3.06-5.2,2.34-7.73
		c-0.28-0.96-0.7-1.56-1.14-2.23c-2.6-3.9-5.32-9.13-9.06-16.32c-0.11-0.22-0.35-0.68-0.82-1.19
		C337.1,540.31,333.64,540.52,333.47,540.53z"/>
	<path class="st6" d="M196.37,540.79c-0.3-0.09-2.87-0.86-5.39,0.32c-1.4,0.66-1.83,1.47-4.81,6.37c-2.32,3.81-3.05,4.95-4.57,7.64
		c-0.49,0.87-1.67,2.97-2.77,5.81c-0.55,1.41-0.88,2.48-0.9,3.82c-0.01,0.8-0.02,2.13,0.73,3.58c0.26,0.5,1.13,2.17,2.94,2.87
		c1.71,0.66,3.38,0.11,4.16-0.16c5.96-2.05,8.57-9.97,13.79-19.74c0.2-0.37,0.87-1.62,1.1-3.38c0.14-1.12,0.37-2.89-0.69-4.58
		C198.85,541.57,197,540.99,196.37,540.79z"/>
	<path class="st2" d="M390.96,460.07"/>
	<path class="st2" d="M314.54,511.81"/>
	<path class="st2" d="M281.58,540.78"/>
	<path class="st6" d="M258.59,408.4c-3,0.93-4.3,4.42-5.35,7.25c-1.17,3.14-0.79,4.08-1.83,10.38c-0.92,5.6-1.42,8.45-2.87,11.24
		c-0.59,1.12-2.33,4.37-5.75,6.83c-3.86,2.78-8.13,3.31-12.41,3.84c-4.71,0.59-6.5,0.04-8.23,1.85c-1.98,2.07-2.16,5.43-2.22,6.4
		c-0.09,1.62-0.21,3.78,0.91,5.55c0.84,1.31,2.24,2.23,14.1,3.98c2.24,0.33,2.23,0.3,2.74,0.43c1.11,0.27,8.08,1.94,10.71,7.82
		c0.36,0.82,0.63,2.54,1.18,5.97c0.65,4.14,0.54,5.07,1.04,8.68c0.72,5.19,1.08,7.79,2.48,10.38c1.06,1.97,2.65,4.92,5.48,5.41
		c3.04,0.53,6.06-2.2,7.57-4.69c2.02-3.32,0.88-5.46,2.22-14.51c0.57-3.83,0.85-5.74,1.44-7.25c1.9-4.88,6.49-10.41,12.27-11.66
		c1.27-0.27,6.48-1.19,11.1-1.28c0.38-0.01,1.17-0.02,2.09-0.43c2.31-1.02,3.92-3.85,4.18-6.69c0.24-2.68-0.73-5.3-2.35-6.97
		c-1.48-1.52-3.1-1.86-6.01-2.42c-10.86-2.08-12.62-2.11-14.89-3.7c-2.68-1.87-3.97-4.42-4.96-6.4c-1.54-3.06-1.78-5.33-3.4-18.64
		c-0.61-5.03-0.95-7.58-2.74-9.39C263.54,408.8,260.95,407.68,258.59,408.4z"/>
	<path d="M97.82,650.37c-2.43-6.34-12.94-7.71-18.13-8.39c-4.39-0.57-11.21-1.47-18,2.04c-1.57,0.81-6.44,3.41-8.94,8.84
		c-0.7,1.52-3.05,6.63-0.51,11.68c2.3,4.59,7.35,6.59,10.47,7.82c5.57,2.21,8.67,3.44,12.51,3.52c0.67,0.01,2.37,0.01,3.7,1.02
		c1.22,0.92,2.06,2.65,1.53,4.2c-0.77,2.26-4.02,2.84-4.6,2.95c-5.01,0.9-9.79-3.04-10.21-3.4c-2.27-1.92-2.42-3.31-4.72-4.08
		c-2.22-0.74-4.31-0.2-4.98,0c-3.15,0.95-4.49,3.41-4.85,4.08c-2,3.68-0.22,7.35,0.13,8.05c0.52,1.06,1.67,2.94,4.85,4.99
		c6.9,4.44,15.09,4.38,19.15,4.31c5.67-0.1,12.13-0.22,17.87-4.31c1.21-0.86,4.77-3.46,6.64-8.16c0.71-1.79,2.16-5.34,0.77-9.41
		c-1.49-4.34-5.57-6.54-9.57-8.73c-3.73-2.05-5.66-1.45-13.4-4.31c-1.53-0.56-3.65-0.49-4.85-1.93c-1.27-1.52-1.32-4.06,0-5.44
		c2.12-2.23,7.83-1.56,11.11,0.79c3.39,2.43,2.86,5.73,5.62,6.35c2.49,0.56,5.03-1.65,5.62-2.15
		C97.96,658.13,99.12,653.75,97.82,650.37z"/>
	<path d="M123.35,642.32c-8.98,3.25-12.99,10.14-14.68,13.04c-4.87,8.36-3.97,16.2-3.57,19.28c0.58,4.45,1.41,10.87,7.15,16.1
		c5.3,4.83,11.78,5.92,15.7,6.58c4.36,0.73,14.17,2.38,22.72-2.83c7.64-4.65,9.72-12.01,11.11-16.9c0.84-2.96,2.82-10.39-0.51-18.94
		c-0.97-2.48-2.94-7.35-8.3-11.57c-1.03-0.81-6.24-4.8-14.55-6.01C135.98,640.71,130,639.91,123.35,642.32z"/>
	<path class="st8" d="M138.29,670.66c0.04,1.82,0.12,4.29,0.03,7.82c-0.11,4.51-0.37,6.02-1.69,6.93c-1.24,0.85-3.21,1-4.6,0.34
		c-1.05-0.5-2.05-1.6-2.81-7.14c-0.36-2.66-0.36-4.08-0.51-8.16c-0.12-3.18-0.29-7.1,0.64-11.68c0.25-1.21,0.62-2.72,2.04-3.52
		c1.1-0.62,2.69-0.73,3.85-0.13c1.41,0.73,1.76,2.29,2.03,3.76C138.18,663.89,138.23,668.03,138.29,670.66z"/>
	<path d="M167.9,645.6c2.24-2.79,7.89-2.58,10.09-2.49c1.59,0.06,4.53,0.2,7.53,1.93c2.44,1.4,3.7,3.15,3.96,3.52
		c1.34,1.91,1.47,3.51,1.53,11.23c0.05,5.83,0.07,8.74,0,9.41c-0.13,1.26-0.42,3.44-0.13,6.35c0.11,1.1,0.35,2.67,1.28,4.42
		c0.67,1.25,1.45,2.73,2.94,2.95c1.33,0.19,2.48-0.75,2.68-0.91c1.4-1.14,1.54-2.81,1.66-4.99c0.23-4.05,0.34-6.08,0.26-7.37
		c-0.38-5.53-0.95-7.51-1.4-12.36c0,0-0.38-2.69-0.38-7.48c0-2.26,0.1-2.86,0.51-3.52c1.55-2.49,5.7-2.86,8.04-3.06
		c2.16-0.19,4.2-0.37,6.38,0.57c3.02,1.29,4.31,3.85,4.98,5.22c1.1,2.25,1.09,3.84,0.77,12.7c-0.11,2.95,0,5.9-0.26,8.84
		c-0.14,1.56-0.45,4.59,0.38,8.28c0.33,1.48,0.84,3.02,2.3,3.74c0.85,0.42,1.88,0.49,2.55,0.34c3.66-0.82,4.21-9.87,4.47-14.06
		c0.53-8.7,0.79-13.04-1.91-16.56c-1.41-1.83-4.36-4.6-3.32-6.46c0.19-0.34,0.47-0.58,1.02-0.91c2.56-1.52,5.72-1.85,9.06-1.81
		c3.86,0.04,5.79,0.06,7.66,0.79c3.57,1.4,5.38,4.02,6.26,5.33c0.97,1.44,2.3,3.95,2.68,11.91c0.22,4.7,0.43,9.04-0.77,14.97
		c-1.23,6.13-2,9.94-5.36,13.95c-1.15,1.37-4.59,5.37-10.85,7.37c-8.27,2.65-19.13,1.08-21.83-3.52c-0.77-1.3-1.37-3.7-2.17-3.63
		c-0.47,0.04-0.68,0.91-0.89,1.47c-0.92,2.43-3.53,3.77-6.13,5.1c-5.03,2.58-16.14,3.05-23.87-2.72c-4.8-3.59-6.48-8.22-7.28-10.43
		c-0.98-2.71-1.09-5.78-1.28-11.79c-0.35-11.33,0.72-10.98-0.13-16.1C167.93,649.78,166.19,647.73,167.9,645.6z"/>
	<path d="M375.1,644.81c0.11,0.32,0.17,0.48,0.34,0.82c0.4,0.77,5.39,16.66,0.55,38.53c-0.38,1.7-1.25,5.42,0.89,8.73
		c1.61,2.49,4.17,3.58,4.85,3.86c5.77,2.36,13.74,0.09,16.09-4.08c0.6-1.07,0.7-2.03,0.77-2.83c0.65-8.21-0.54-22.86-0.51-27.78
		c0-0.52,0.03-1.68,0.89-2.61c1.02-1.1,3.12-2.1,5.11-1.36c1.39,0.52,2.06,1.76,2.43,2.61c2.14,4.92,1.01,11.53,0.13,18.48
		c-0.86,6.73-0.81,8.39,0,10.43c0.45,1.14,2.03,5.13,6.51,7.03c4.46,1.88,10.62,1.21,13.15-1.81c0.97-1.16,1-3.09,1.02-6.92
		c0.05-9.48,0.08-14.22,0-14.63c-0.39-1.95-1.61-7.2-0.77-10.77c0.07-0.3,0.33-1.32,1.15-2.38c0.51-0.66,1.8-2.33,3.83-2.38
		c1.67-0.04,2.84,1.05,2.94,1.13c1.29,1.22,1.12,2.89,1.02,5.33c-0.2,4.96,0.47-1.46,0,7.26c-0.33,6.09-0.54,7.03-0.64,10.89
		c-0.09,3.41,0.01,5.37,0.64,7.71c0.57,2.11,0.99,3.59,2.43,4.88c2.38,2.13,5.8,2.15,7.66,2.15c4.33,0.02,7.44-1.64,9.19-2.61
		c3.67-2.02,5.69-4.57,6.38-6.46c0.2-0.55,0.6-1.68,0-2.61c-0.4-0.62-1-0.77-1.53-1.13c-1.47-1.01-1.53-3.05-1.53-4.42
		c-0.01-5.38,0.87-13.72,0.38-19.84c-0.52-6.52-2.53-9.79-3.45-11.11c-1.96-2.83-4.15-4.31-4.85-4.76c-1.17-0.75-3.67-2.32-7.4-2.72
		c-1.24-0.13-4.78-0.36-8.3,1.25c-0.26,0.12-6.23,2.89-8.3,5.56c-0.13,0.17-0.52,0.69-1.02,0.68c-0.9-0.01-1.49-1.65-1.79-2.27
		c-1.6-3.28-8.16-4.7-12.38-4.65c0,0-4.86,0.06-11.74,3.86c-2.53,1.39-3.19,1.93-3.19,1.93c-0.93,0.75-1.24,1.21-1.66,1.13
		c-0.9-0.15-0.52-2.38-1.66-3.97c-1.59-2.22-5.49-2.32-6.89-2.38c-3.8-0.15-4.46,1.35-8.04,0.79c-0.97-0.15-2.6-0.52-2.94,0
		C374.67,643.6,374.84,644.07,375.1,644.81z"/>
	<path d="M480.14,616.9c-2.83-0.56-5.11-0.1-6.72,0.24c-3.57,0.76-6.6,1.4-8.53,3.96c-2.38,3.16-1.52,7.09-1.18,8.6
		c0.27,1.23,1.08,4.97,4.67,7.4c3.49,2.37,7.31,1.93,8.82,1.76c0.6-0.07,9.14-1.17,11.41-7.35c1.19-3.23,0.1-6.33-0.36-7.64
		c-0.45-1.26-1.2-3.32-3.27-4.95C483.19,617.53,481.35,617.14,480.14,616.9z"/>
	<path d="M465.1,645.49c0.06-2.26,7.9-4.94,15.19-4.08c1.99,0.23,4.19,0.52,6.38,1.93c3.63,2.34,4.58,6.07,5.11,8.28
		c0.69,2.9,0.08,3.53-0.51,12.7c-0.41,6.39-0.05,5.06-0.38,8.28c-0.57,5.43-1.37,7.01-0.13,9.07c1.64,2.72,4.35,2.13,5.36,4.54
		c1.26,3.02-1.73,6.96-4.47,8.96c-2.86,2.09-5.97,2.46-7.4,2.61c-1.77,0.19-6.49,0.68-10.47-2.15c-2.29-1.63-3.68-4.09-4.6-9.52
		c-0.4-2.36-0.88-6.38,1.15-21.77c0,0,1.39-10.58-1.4-13.61c-1.06-1.14-1.56-1.82-2.55-3.17
		C465.52,646.37,465.09,645.78,465.1,645.49z"/>
	<path d="M290.97,642.3c2.55,0.78,8.61,2.64,12.64,8.05c2.89,3.87,3.34,7.71,3.57,9.87c0.32,2.97,0.67,6.26-1.4,9.64
		c-2.28,3.71-6.13,5.33-8.3,6.24c-3.46,1.45-6.5,1.71-10.34,2.04c-4.62,0.4-7.26-0.98-8.04,0.11c-0.69,0.97,0.46,3.05,2.04,4.31
		c5.66,4.52,18.34-0.18,19.66-2.72c0.08-0.15,0.36-0.75,1.02-1.02c0.94-0.38,2.21,0.1,2.94,0.68c0.4,0.32,1.24,1.16,1.28,3.4
		c0.06,4.14-2.7,7.43-2.94,7.71c-4.34,5.05-11.76,5.93-16.21,6.46c-4.38,0.52-11.11,1.33-18.26-1.7
		c-12.26-5.2-15.29-17.26-15.83-19.39c-0.69-2.73-2.87-13.18,4.47-22.91c1.43-1.89,6.93-8.95,17.49-11.34
		C277.23,641.17,283.62,640.05,290.97,642.3z"/>
	<path class="st8" d="M276.97,669.81c-1.66-0.67-0.22-5.36,2.66-14.73c0.15-0.48,0.49-1.54,1.59-2.09c1.41-0.7,3.56-0.32,4.86,0.63
		c1.42,1.05,1.51,2.59,1.57,3.85c0.17,4.03-2.55,7.03-3.4,7.94C284.02,665.66,279.23,670.73,276.97,669.81z"/>
	<path d="M354.54,634.38"/>
	<path d="M355.56,636.87"/>
	<path d="M320.33,636.65"/>
	<path d="M331.35,642.18c-8.98,3.25-12.99,10.14-14.68,13.04c-4.87,8.36-3.97,16.2-3.57,19.28c0.58,4.45,1.41,10.87,7.15,16.1
		c5.3,4.83,11.78,5.92,15.7,6.58c4.36,0.73,14.17,2.38,22.72-2.83c7.64-4.65,9.72-12.01,11.11-16.9c0.84-2.96,2.82-10.39-0.51-18.94
		c-0.97-2.48-2.94-7.35-8.3-11.57c-1.03-0.81-6.24-4.8-14.55-6.01C343.98,640.58,337.99,639.77,331.35,642.18z"/>
	<path class="st8" d="M350.02,670.53c0.04,1.82,0.12,4.29,0.03,7.82c-0.11,4.51-0.37,6.02-1.69,6.93c-1.24,0.85-3.21,1-4.6,0.34
		c-1.05-0.5-2.05-1.6-2.81-7.14c-0.36-2.66-0.36-4.08-0.51-8.16c-0.12-3.18-0.29-7.1,0.64-11.68c0.25-1.21,0.62-2.72,2.04-3.52
		c1.1-0.62,2.69-0.73,3.85-0.13c1.41,0.73,1.76,2.29,2.03,3.76C349.91,663.75,349.96,667.9,350.02,670.53z"/>
</g>
</svg>
